<svg fill="#2A415F" height="50rem" width="50rem" version="1.1" id="Layer_1" xmlns="http://www.w3.org/2000/svg" xmlns:xlink="http://www.w3.org/1999/xlink"
	 viewBox="0 0 512 512" xml:space="preserve">
<g>
	<g>
		<path d="M376.723,399.286c-1.921,0-3.485-1.564-3.485-3.486v-29.242c0-16.845-13.705-30.55-30.55-30.55
			c-1.394,0-2.528-1.133-2.528-2.528v-27.324c0-16.845-13.705-30.55-30.55-30.55h-16.674V122.743h8.373
			c21.349,0,38.717-17.369,38.717-38.717C340.026,37.694,302.332,0,255.998,0c-46.332,0-84.025,37.694-84.025,84.026
			c0,21.35,17.369,38.717,38.717,38.717h8.372v152.861h-16.673c-16.845,0-30.55,13.705-30.55,30.55v27.325
			c0,1.393-1.133,2.528-2.528,2.528c-16.845,0-30.55,13.705-30.55,30.55v29.242c0,1.922-1.564,3.486-3.485,3.486
			c-16.845,0-30.55,13.705-30.55,30.55v65.116c0,9.415,7.633,17.048,17.048,17.048h268.453c9.415,0,17.048-7.633,17.048-17.048
			v-65.116C407.274,412.99,393.57,399.286,376.723,399.286z"/>
	</g>
</g>
</svg>
